<?xml version="1.0" encoding="iso-8859-1"?>
<!-- Generator: Adobe Illustrator 19.0.0, SVG Export Plug-In . SVG Version: 6.00 Build 0)  -->
<svg version="1.1" id="Layer_1" xmlns="http://www.w3.org/2000/svg" xmlns:xlink="http://www.w3.org/1999/xlink" x="0px" y="0px"
	 viewBox="0 0 512 512" style="enable-background:new 0 0 512 512;" xml:space="preserve">
<g>
	<g>
		<g>
			<path d="M116.903,338.547c-31.181,0-56.549,25.368-56.549,56.55c0,31.181,25.368,56.549,56.549,56.549s56.55-25.368,56.55-56.549
				C173.453,363.914,148.086,338.547,116.903,338.547z M116.903,435.532c-22.296,0-40.435-18.139-40.435-40.435
				c0-22.296,18.139-40.437,40.435-40.437c22.296,0,40.436,18.14,40.436,40.437C157.339,417.393,139.199,435.532,116.903,435.532z"
				/>
			<path d="M79.211,187.681c-4.918-0.211-9.745,1.629-13.286,5.025c-3.541,3.397-5.572,8.159-5.572,13.064v52.354
				c0,9.613,7.537,17.547,17.157,18.063c41.208,2.214,80.055,19.586,109.385,48.916c29.331,29.331,46.703,68.177,48.916,109.385
				c0.518,9.62,8.452,17.156,18.064,17.156h52.354c4.905,0,9.667-2.031,13.064-5.571c3.397-3.542,5.228-8.385,5.025-13.288
				c-2.676-64.165-29.268-124.619-74.878-170.228C203.833,216.949,143.378,190.357,79.211,187.681z M307.667,434.918
				c-0.269,0.28-0.736,0.613-1.436,0.613h-52.354c-1.05,0-1.915-0.838-1.973-1.907c-2.428-45.183-21.467-87.769-53.612-119.914
				c-32.145-32.145-74.731-51.185-119.916-53.612c-1.069-0.058-1.906-0.923-1.906-1.972v-52.354c0-0.7,0.334-1.168,0.613-1.436
				c0.267-0.257,0.72-0.555,1.37-0.555c0.029,0,0.06,0,0.09,0.001c60.116,2.508,116.763,27.428,159.506,70.171
				c42.743,42.743,67.664,99.39,70.172,159.505C308.249,434.158,307.935,434.638,307.667,434.918z"/>
			<path d="M78.988,60.361c-4.964-0.142-9.622,1.689-13.164,5.135c-3.528,3.433-5.471,8.036-5.471,12.957v52.319
				c0,9.831,7.679,17.773,17.479,18.081c155.098,4.892,280.423,130.216,285.316,285.314c0.308,9.801,8.25,17.479,18.081,17.479
				h52.319c4.922,0,9.523-1.943,12.958-5.471c3.446-3.542,5.269-8.216,5.135-13.164c-2.674-98.187-42.545-190.66-112.268-260.383
				S177.177,63.035,78.988,60.361z M434.957,434.935c-0.264,0.272-0.724,0.596-1.409,0.596h-52.319c-1.056,0-1.943-0.84-1.976-1.872
				C374.094,270.083,241.917,137.906,78.34,132.748c-1.032-0.032-1.872-0.918-1.872-1.976v-52.32c0-0.686,0.324-1.144,0.595-1.409
				c0.273-0.265,0.739-0.577,1.424-0.577c0.021,0,0.042,0.001,0.063,0.001c94.05,2.562,182.633,40.759,249.429,107.553
				c66.796,66.796,104.992,155.378,107.555,249.428C435.552,434.168,435.231,434.654,434.957,434.935z"/>
			<path d="M468.031,0H43.969C19.724,0,0,19.724,0,43.969v424.063C0,492.275,19.724,512,43.969,512h424.063
				C492.275,512,512,492.276,512,468.031V43.969C512,19.724,492.275,0,468.031,0z M495.886,468.031
				c0,15.359-12.496,27.855-27.855,27.855H43.969c-15.359,0-27.855-12.496-27.855-27.855V43.969
				c0-15.359,12.496-27.855,27.855-27.855h424.063c15.359,0,27.855,12.496,27.855,27.855V468.031z"/>
		</g>
	</g>
</g>
<g>
</g>
<g>
</g>
<g>
</g>
<g>
</g>
<g>
</g>
<g>
</g>
<g>
</g>
<g>
</g>
<g>
</g>
<g>
</g>
<g>
</g>
<g>
</g>
<g>
</g>
<g>
</g>
<g>
</g>
</svg>
